<?xml version="1.0" encoding="iso-8859-1"?>
<!-- Generator: Adobe Illustrator 19.0.0, SVG Export Plug-In . SVG Version: 6.00 Build 0)  -->
<svg xmlns="http://www.w3.org/2000/svg" xmlns:xlink="http://www.w3.org/1999/xlink" version="1.1" id="Layer_1" x="0px" y="0px" viewBox="0 0 482.813 482.813" style="enable-background:new 0 0 482.813 482.813;" xml:space="preserve" width="512px" height="512px">
<g>
	<path d="M456.168,47.811L476.26,27.72L455.047,6.507l-20.08,20.08C413.075,9.352,386.22,0,357.923,0   c-18.75,0-37.544,4.291-54.351,12.411l-191.291,92.432c-20.032,9.68-38.228,22.626-54.081,38.479   c-77.54,77.539-77.54,203.705,0,281.244c37.562,37.562,87.502,58.248,140.622,58.248s103.061-20.686,140.622-58.247   c15.852-15.851,28.798-34.047,38.479-54.082l92.433-191.292C491.239,135.966,485.282,84.936,456.168,47.811z M443.344,166.142   l-92.432,191.291c-8.216,17.001-19.211,32.451-32.681,45.921c-31.896,31.895-74.303,49.46-119.409,49.46   c-45.107,0-87.514-17.565-119.409-49.46c-65.842-65.842-65.842-172.976,0-238.818c13.471-13.471,28.921-24.466,45.92-32.681   l191.291-92.432C329.385,33.258,343.665,30,357.923,30c25.337,0,49.155,9.864,67.067,27.776   C453.506,86.292,460.881,129.841,443.344,166.142z" fill="#FFFFFF"/>
	<path d="M198.822,180.444c-27.646,0-53.637,10.766-73.186,30.314c-40.355,40.354-40.355,106.017,0,146.371   c19.548,19.549,45.54,30.315,73.186,30.315s53.637-10.766,73.186-30.315c40.354-40.354,40.354-106.017,0-146.372   C252.459,191.21,226.468,180.444,198.822,180.444z M250.795,335.917c-13.882,13.882-32.34,21.528-51.973,21.528   s-38.09-7.646-51.973-21.528c-28.658-28.658-28.658-75.288,0-103.945c13.882-13.882,32.34-21.527,51.973-21.527   s38.09,7.646,51.973,21.527C279.452,260.629,279.452,307.259,250.795,335.917z" fill="#FFFFFF"/>
</g>
<g>
</g>
<g>
</g>
<g>
</g>
<g>
</g>
<g>
</g>
<g>
</g>
<g>
</g>
<g>
</g>
<g>
</g>
<g>
</g>
<g>
</g>
<g>
</g>
<g>
</g>
<g>
</g>
<g>
</g>
</svg>
